<svg xmlns="http://www.w3.org/2000/svg" fill="none" viewBox="0 0 130 24" height="24" width="130">
<path fill="#0D0D12" d="M26.2148 11.8293C26.2148 15.7015 29.036 18.5226 32.8345 18.5226C36.6145 18.5226 39.2882 15.683 39.3435 11.7371L32.4473 11.7371V13.5625L37.0386 13.5625C36.5592 15.3142 34.8812 16.4759 32.8345 16.4759C30.1793 16.4759 28.3722 14.5767 28.3722 11.8293C28.3722 9.10026 30.2161 7.20104 32.8345 7.20104C34.7706 7.20104 36.4117 8.2705 36.9648 9.93002L39.1591 9.93002C38.569 7.12728 35.9323 5.1543 32.7792 5.1543C28.9991 5.1543 26.2148 7.99392 26.2148 11.8293Z"></path>
<path fill="#0D0D12" d="M45.9604 18.5226C48.1731 18.5226 49.9985 17.2503 50.7914 15.1483H48.6341C48.1178 16.0518 47.1405 16.605 45.9604 16.605C44.3193 16.605 43.1576 15.6093 42.9179 14.0051L50.9943 14.0051C51.0127 13.7838 51.0311 13.5441 51.0311 13.3228C51.0311 10.4279 49.0028 8.08611 45.9604 8.08611C43.047 8.08611 40.8343 10.3172 40.8343 13.3044C40.8343 16.2731 43.047 18.5226 45.9604 18.5226ZM42.9548 12.3455C43.3052 10.852 44.4115 9.93002 45.9604 9.93002C47.4724 9.93002 48.6156 10.8335 48.9844 12.3455L42.9548 12.3455Z"></path>
<path fill="#0D0D12" d="M55.2511 18.2829V12.8434C55.2511 11.147 56.2652 9.93002 57.5929 9.93002C58.8467 9.93002 59.529 10.852 59.529 12.4562V18.2829H61.5388V12.8434C61.5388 11.147 62.553 9.93002 63.8806 9.93002C65.116 9.93002 65.8167 10.852 65.8167 12.4562V18.2829H67.8634V11.9583C67.8634 9.69032 66.4436 8.10455 64.3416 8.10455C63.0324 8.10455 61.8154 8.76836 61.0963 9.83783C60.5247 8.76836 59.4552 8.10455 58.1092 8.10455C56.8922 8.10455 55.749 8.67616 55.0114 9.61656L54.661 8.32582H53.2044V18.2829H55.2511Z"></path>
<path fill="#0D0D12" d="M72.94 18.2829V13.8944H75.5952C78.1029 13.8944 79.9837 12.069 79.9837 9.635C79.9837 7.1826 78.0845 5.37557 75.5952 5.37557L70.8195 5.37557V18.2829H72.94ZM72.94 7.38543L75.4846 7.38543C76.8675 7.38543 77.8448 8.34426 77.8448 9.635C77.8448 10.9442 76.8675 11.8846 75.4846 11.8846L72.94 11.8846V7.38543Z"></path>
<path fill="#0D0D12" d="M86.4417 18.5226C87.88 18.5226 89.1338 17.9879 90.0373 17.066L90.2402 18.2829H91.8997V8.32582H90.3139L90.0742 9.56124C89.1707 8.63929 87.8984 8.08611 86.4417 8.08611C83.473 8.08611 81.2419 10.2988 81.2419 13.3044C81.2419 16.2915 83.473 18.5226 86.4417 18.5226ZM86.5892 10.0407C88.47 10.0407 89.8345 11.4236 89.8345 13.3044C89.8345 15.1852 88.47 16.5681 86.5892 16.5681C84.7269 16.5681 83.3255 15.1667 83.3255 13.3044C83.3255 11.442 84.7269 10.0407 86.5892 10.0407Z"></path>
<path fill="#0D0D12" d="M99.0041 17.9879C100.295 17.9879 101.438 17.5454 102.305 16.8078V17.2503C102.305 19.1496 101.051 20.2744 99.3175 20.2744C98.0637 20.2744 96.902 19.6843 96.5148 18.578H94.468C94.9843 20.7722 96.7914 22.0998 99.336 22.0998C102.415 22.0998 104.315 20.1637 104.315 16.9738V8.32582L102.968 8.32582L102.637 9.61656C101.751 8.65773 100.461 8.08611 99.0041 8.08611C96.2382 8.08611 94.0808 10.2619 94.0808 13.0462C94.0808 15.8305 96.2382 17.9879 99.0041 17.9879ZM99.2438 9.98534C101.014 9.98534 102.305 11.2761 102.305 13.0462C102.305 14.7979 101.014 16.0887 99.2438 16.0887C97.4736 16.0887 96.1644 14.7795 96.1644 13.0462C96.1644 11.2945 97.4736 9.98534 99.2438 9.98534Z"></path>
<path fill="#0D0D12" d="M111.614 18.5226C113.826 18.5226 115.652 17.2503 116.445 15.1483H114.287C113.771 16.0518 112.794 16.605 111.614 16.605C109.973 16.605 108.811 15.6093 108.571 14.0051H116.648C116.666 13.7838 116.684 13.5441 116.684 13.3228C116.684 10.4279 114.656 8.08611 111.614 8.08611C108.7 8.08611 106.488 10.3172 106.488 13.3044C106.488 16.2731 108.7 18.5226 111.614 18.5226ZM108.608 12.3455C108.958 10.852 110.065 9.93002 111.614 9.93002C113.126 9.93002 114.269 10.8335 114.638 12.3455H108.608Z"></path>
<path fill="#0D0D12" d="M118.102 15.1298C118.157 17.195 119.743 18.5226 122.177 18.5226C124.592 18.5226 126.215 17.2688 126.215 15.3327C126.215 12.8803 124.168 12.5668 122.49 12.2718C121.292 12.0874 120.259 11.903 120.259 11.0179C120.259 10.2988 120.96 9.81939 122.103 9.81939C123.301 9.81939 124.021 10.3172 124.057 11.2761L125.994 11.2761C125.957 9.33997 124.463 8.08611 122.14 8.08611C119.835 8.08611 118.286 9.30309 118.286 11.0917C118.286 13.3966 120.241 13.7838 121.9 14.0604C123.117 14.2632 124.187 14.4845 124.187 15.4249C124.187 16.2546 123.338 16.7156 122.25 16.7156C121.052 16.7156 120.167 16.1809 120.112 15.1298H118.102Z"></path>
<path fill="#FFBB1C" d="M21.8187 0.00550662L2.10767 6.17289C2.02571 6.19338 1.98473 6.28558 2.00522 6.36754L3.52145 11.367C3.54194 11.449 3.63415 11.5002 3.70586 11.4695L18.1613 6.94125C18.8477 6.72611 19.4317 6.2446 19.7697 5.58893C20.6713 3.85756 21.4089 2.06471 21.9826 0.200158C22.0441 0.0772203 21.9314 -0.0252278 21.8187 0.00550662Z"></path>
<path fill="#E8486C" d="M17.0857 8.65205L4.8431 12.4836C4.78163 12.5041 4.73041 12.5758 4.76114 12.6475L6.05199 16.8684C6.07248 16.9299 6.14419 16.9811 6.2159 16.9606L14.0225 14.5121C14.6064 14.3277 15.0982 13.9179 15.385 13.3749C16.1431 11.9201 16.7783 10.3937 17.2496 8.81596C17.2803 8.72376 17.1881 8.62131 17.0857 8.65205Z"></path>
<path fill="#476DF2" d="M12.434 16.3767L7.33204 17.9749C7.27057 17.9851 7.25008 18.0568 7.26033 18.1081L8.34628 21.6835C8.35652 21.745 8.42824 21.7757 8.47946 21.7552L9.83178 21.3352C10.3235 21.1815 10.7333 20.8332 10.9792 20.3722C11.6246 19.1428 12.1471 17.8519 12.5569 16.5201C12.5979 16.4279 12.5159 16.346 12.434 16.3767Z"></path>
</svg>
