<svg xmlns="http://www.w3.org/2000/svg" xmlns:xlink="http://www.w3.org/1999/xlink" width="1200" zoomAndPan="magnify" viewBox="0 0 900 899.99999" height="1200" preserveAspectRatio="xMidYMid meet" version="1.0"><path fill="#ffbb1c" d="M 860.296875 0.222656 L 57.453125 251.351562 C 54.113281 252.1875 52.445312 255.941406 53.277344 259.277344 L 115.035156 462.851562 C 115.871094 466.1875 119.625 468.273438 122.546875 467.023438 L 711.328125 282.640625 C 739.285156 273.878906 763.070312 254.273438 776.839844 227.574219 C 813.5625 157.074219 843.605469 84.074219 866.972656 8.148438 C 869.476562 3.144531 864.886719 -1.027344 860.296875 0.222656 Z M 860.296875 0.222656 " fill-opacity="1" fill-rule="nonzero"/><path fill="#e8486c" d="M 667.519531 352.300781 L 168.867188 508.316406 C 166.363281 509.152344 164.277344 512.070312 165.527344 514.992188 L 218.105469 686.859375 C 218.941406 689.363281 221.863281 691.449219 224.78125 690.613281 L 542.75 590.914062 C 566.535156 583.40625 586.566406 566.71875 598.246094 544.609375 C 629.125 485.371094 654.996094 423.21875 674.195312 358.976562 C 675.445312 355.21875 671.6875 351.050781 667.519531 352.300781 Z M 667.519531 352.300781 " fill-opacity="1" fill-rule="nonzero"/><path fill="#476df2" d="M 478.050781 666.839844 L 270.242188 731.914062 C 267.738281 732.332031 266.90625 735.25 267.324219 737.339844 L 311.554688 882.925781 C 311.972656 885.429688 314.894531 886.679688 316.980469 885.84375 L 372.058594 868.742188 C 392.089844 862.484375 408.78125 848.300781 418.796875 829.53125 C 445.082031 779.472656 466.363281 726.90625 483.054688 672.679688 C 484.726562 668.921875 481.386719 665.589844 478.050781 666.839844 Z M 478.050781 666.839844 " fill-opacity="1" fill-rule="nonzero"/></svg>